<svg xmlns="http://www.w3.org/2000/svg" width="1448" height="1086" viewBox="0 0 1448 1086">
<rect width="1448" height="1086" fill="#0d1418"/>
<line x1="419.4" y1="0" x2="419.4" y2="1086" stroke="rgba(142,175,186,0.06)" stroke-width="1"/>
<line x1="513.7" y1="0" x2="513.7" y2="1086" stroke="rgba(142,175,186,0.06)" stroke-width="1"/>
<line x1="608.0" y1="0" x2="608.0" y2="1086" stroke="rgba(142,175,186,0.06)" stroke-width="1"/>
<line x1="702.3" y1="0" x2="702.3" y2="1086" stroke="rgba(142,175,186,0.06)" stroke-width="1"/>
<line x1="796.6" y1="0" x2="796.6" y2="1086" stroke="rgba(142,175,186,0.06)" stroke-width="1"/>
<line x1="890.9" y1="0" x2="890.9" y2="1086" stroke="rgba(142,175,186,0.06)" stroke-width="1"/>
<line x1="985.2" y1="0" x2="985.2" y2="1086" stroke="rgba(142,175,186,0.06)" stroke-width="1"/>
<line x1="0" y1="1168.7" x2="1448" y2="1168.7" stroke="rgba(142,175,186,0.06)" stroke-width="1"/>
<line x1="0" y1="1070.5" x2="1448" y2="1070.5" stroke="rgba(142,175,186,0.06)" stroke-width="1"/>
<line x1="0" y1="970.9" x2="1448" y2="970.9" stroke="rgba(142,175,186,0.06)" stroke-width="1"/>
<line x1="0" y1="869.7" x2="1448" y2="869.7" stroke="rgba(142,175,186,0.06)" stroke-width="1"/>
<line x1="0" y1="766.7" x2="1448" y2="766.7" stroke="rgba(142,175,186,0.06)" stroke-width="1"/>
<line x1="0" y1="661.5" x2="1448" y2="661.5" stroke="rgba(142,175,186,0.06)" stroke-width="1"/>
<line x1="0" y1="554.0" x2="1448" y2="554.0" stroke="rgba(142,175,186,0.06)" stroke-width="1"/>
<line x1="0" y1="443.7" x2="1448" y2="443.7" stroke="rgba(142,175,186,0.06)" stroke-width="1"/>
<line x1="0" y1="330.2" x2="1448" y2="330.2" stroke="rgba(142,175,186,0.06)" stroke-width="1"/>
<line x1="0" y1="213.3" x2="1448" y2="213.3" stroke="rgba(142,175,186,0.06)" stroke-width="1"/>
<line x1="0" y1="92.4" x2="1448" y2="92.4" stroke="rgba(142,175,186,0.06)" stroke-width="1"/>
<line x1="0" y1="-33.1" x2="1448" y2="-33.1" stroke="rgba(142,175,186,0.06)" stroke-width="1"/>
<rect x="18.6" y="91.9" width="0.5" height="0.5" fill="rgba(237,242,241,0.055)"/>
<rect x="207.5" y="99.4" width="0.4" height="0.4" fill="rgba(237,242,241,0.175)"/>
<rect x="989.2" y="509.3" width="1.1" height="1.1" fill="rgba(237,242,241,0.181)"/>
<rect x="270.8" y="737.5" width="0.7" height="0.7" fill="rgba(237,242,241,0.107)"/>
<rect x="1262.2" y="754.1" width="0.4" height="0.4" fill="rgba(237,242,241,0.113)"/>
<rect x="191.5" y="662.3" width="1.3" height="1.3" fill="rgba(237,242,241,0.139)"/>
<rect x="1068.3" y="645.7" width="1.2" height="1.2" fill="rgba(237,242,241,0.126)"/>
<rect x="1237.1" y="855.2" width="0.7" height="0.7" fill="rgba(237,242,241,0.193)"/>
<rect x="33.8" y="744.5" width="0.7" height="0.7" fill="rgba(237,242,241,0.083)"/>
<rect x="863.6" y="1076.4" width="1.1" height="1.1" fill="rgba(237,242,241,0.077)"/>
<rect x="1445.0" y="275.8" width="1.0" height="1.0" fill="rgba(237,242,241,0.088)"/>
<rect x="1057.6" y="498.3" width="0.6" height="0.6" fill="rgba(237,242,241,0.063)"/>
<rect x="1126.0" y="786.0" width="1.0" height="1.0" fill="rgba(237,242,241,0.086)"/>
<rect x="767.7" y="232.6" width="0.9" height="0.9" fill="rgba(237,242,241,0.221)"/>
<rect x="443.5" y="674.9" width="0.6" height="0.6" fill="rgba(237,242,241,0.122)"/>
<rect x="625.9" y="633.3" width="1.2" height="1.2" fill="rgba(237,242,241,0.127)"/>
<rect x="163.0" y="527.9" width="1.0" height="1.0" fill="rgba(237,242,241,0.219)"/>
<rect x="1171.2" y="941.6" width="0.6" height="0.6" fill="rgba(237,242,241,0.078)"/>
<rect x="1082.4" y="688.6" width="0.5" height="0.5" fill="rgba(237,242,241,0.093)"/>
<rect x="1019.4" y="628.6" width="1.1" height="1.1" fill="rgba(237,242,241,0.062)"/>
<rect x="1289.3" y="916.1" width="1.3" height="1.3" fill="rgba(237,242,241,0.193)"/>
<rect x="1213.3" y="150.2" width="0.9" height="0.9" fill="rgba(237,242,241,0.101)"/>
<rect x="838.8" y="13.9" width="1.2" height="1.2" fill="rgba(237,242,241,0.246)"/>
<rect x="194.3" y="933.2" width="1.0" height="1.0" fill="rgba(237,242,241,0.202)"/>
<rect x="1254.7" y="427.9" width="0.7" height="0.7" fill="rgba(237,242,241,0.08)"/>
<rect x="137.3" y="741.6" width="0.6" height="0.6" fill="rgba(237,242,241,0.249)"/>
<rect x="1007.1" y="316.5" width="1.2" height="1.2" fill="rgba(237,242,241,0.181)"/>
<rect x="646.4" y="625.1" width="1.0" height="1.0" fill="rgba(237,242,241,0.202)"/>
<rect x="940.2" y="712.2" width="0.4" height="0.4" fill="rgba(237,242,241,0.193)"/>
<rect x="1082.8" y="418.1" width="0.6" height="0.6" fill="rgba(237,242,241,0.217)"/>
<rect x="1058.9" y="900.7" width="0.8" height="0.8" fill="rgba(237,242,241,0.24)"/>
<rect x="135.4" y="362.4" width="1.2" height="1.2" fill="rgba(237,242,241,0.101)"/>
<rect x="1393.0" y="139.2" width="1.1" height="1.1" fill="rgba(237,242,241,0.201)"/>
<rect x="372.3" y="176.7" width="1.3" height="1.3" fill="rgba(237,242,241,0.147)"/>
<rect x="202.3" y="932.7" width="1.0" height="1.0" fill="rgba(237,242,241,0.142)"/>
<rect x="363.3" y="260.3" width="0.6" height="0.6" fill="rgba(237,242,241,0.088)"/>
<rect x="1224.5" y="272.8" width="0.5" height="0.5" fill="rgba(237,242,241,0.072)"/>
<rect x="329.1" y="77.1" width="1.2" height="1.2" fill="rgba(237,242,241,0.173)"/>
<rect x="1345.3" y="343.8" width="1.2" height="1.2" fill="rgba(237,242,241,0.089)"/>
<rect x="41.9" y="264.6" width="1.1" height="1.1" fill="rgba(237,242,241,0.151)"/>
<rect x="972.2" y="632.9" width="1.3" height="1.3" fill="rgba(237,242,241,0.208)"/>
<rect x="814.4" y="933.1" width="0.6" height="0.6" fill="rgba(237,242,241,0.187)"/>
<rect x="465.0" y="936.9" width="1.1" height="1.1" fill="rgba(237,242,241,0.212)"/>
<rect x="285.2" y="1027.1" width="1.2" height="1.2" fill="rgba(237,242,241,0.134)"/>
<rect x="400.7" y="469.4" width="1.2" height="1.2" fill="rgba(237,242,241,0.241)"/>
<rect x="695.7" y="715.0" width="0.6" height="0.6" fill="rgba(237,242,241,0.186)"/>
<rect x="1417.0" y="845.7" width="0.5" height="0.5" fill="rgba(237,242,241,0.113)"/>
<rect x="1368.5" y="886.1" width="0.6" height="0.6" fill="rgba(237,242,241,0.221)"/>
<rect x="869.1" y="802.9" width="0.8" height="0.8" fill="rgba(237,242,241,0.148)"/>
<rect x="1256.9" y="219.4" width="0.6" height="0.6" fill="rgba(237,242,241,0.163)"/>
<rect x="239.5" y="978.4" width="0.8" height="0.8" fill="rgba(237,242,241,0.151)"/>
<rect x="267.2" y="1004.4" width="1.1" height="1.1" fill="rgba(237,242,241,0.114)"/>
<rect x="471.7" y="471.7" width="0.4" height="0.4" fill="rgba(237,242,241,0.233)"/>
<rect x="929.9" y="58.6" width="0.9" height="0.9" fill="rgba(237,242,241,0.175)"/>
<rect x="692.6" y="349.1" width="1.0" height="1.0" fill="rgba(237,242,241,0.235)"/>
<rect x="215.2" y="939.5" width="0.9" height="0.9" fill="rgba(237,242,241,0.084)"/>
<rect x="390.3" y="226.9" width="0.7" height="0.7" fill="rgba(237,242,241,0.192)"/>
<rect x="705.9" y="990.3" width="0.8" height="0.8" fill="rgba(237,242,241,0.136)"/>
<rect x="1071.3" y="954.6" width="0.6" height="0.6" fill="rgba(237,242,241,0.068)"/>
<rect x="818.6" y="403.2" width="1.1" height="1.1" fill="rgba(237,242,241,0.095)"/>
<rect x="1154.8" y="839.4" width="1.2" height="1.2" fill="rgba(237,242,241,0.22)"/>
<rect x="412.6" y="234.3" width="0.8" height="0.8" fill="rgba(237,242,241,0.124)"/>
<rect x="701.0" y="522.6" width="0.7" height="0.7" fill="rgba(237,242,241,0.102)"/>
<rect x="772.5" y="276.7" width="0.7" height="0.7" fill="rgba(237,242,241,0.116)"/>
<rect x="1239.3" y="256.2" width="0.4" height="0.4" fill="rgba(237,242,241,0.175)"/>
<rect x="1216.7" y="228.9" width="0.9" height="0.9" fill="rgba(237,242,241,0.107)"/>
<rect x="677.5" y="159.4" width="0.4" height="0.4" fill="rgba(237,242,241,0.143)"/>
<rect x="1199.3" y="149.2" width="1.1" height="1.1" fill="rgba(237,242,241,0.067)"/>
<rect x="171.7" y="958.9" width="0.9" height="0.9" fill="rgba(237,242,241,0.079)"/>
<rect x="167.4" y="281.4" width="0.8" height="0.8" fill="rgba(237,242,241,0.213)"/>
<rect x="625.8" y="339.3" width="0.8" height="0.8" fill="rgba(237,242,241,0.22)"/>
<rect x="643.3" y="169.0" width="0.6" height="0.6" fill="rgba(237,242,241,0.111)"/>
<rect x="365.3" y="845.3" width="0.7" height="0.7" fill="rgba(237,242,241,0.057)"/>
<rect x="62.3" y="486.1" width="0.4" height="0.4" fill="rgba(237,242,241,0.135)"/>
<rect x="85.3" y="73.7" width="0.5" height="0.5" fill="rgba(237,242,241,0.124)"/>
<rect x="5.3" y="1077.2" width="1.1" height="1.1" fill="rgba(237,242,241,0.102)"/>
<rect x="912.8" y="753.4" width="0.9" height="0.9" fill="rgba(237,242,241,0.075)"/>
<rect x="1350.1" y="722.8" width="0.6" height="0.6" fill="rgba(237,242,241,0.051)"/>
<rect x="182.1" y="819.5" width="0.5" height="0.5" fill="rgba(237,242,241,0.107)"/>
<rect x="1425.8" y="328.9" width="0.4" height="0.4" fill="rgba(237,242,241,0.073)"/>
<rect x="298.4" y="995.6" width="0.6" height="0.6" fill="rgba(237,242,241,0.079)"/>
<rect x="669.0" y="253.7" width="1.1" height="1.1" fill="rgba(237,242,241,0.24)"/>
<rect x="500.6" y="148.8" width="0.8" height="0.8" fill="rgba(237,242,241,0.068)"/>
<rect x="680.5" y="111.6" width="0.5" height="0.5" fill="rgba(237,242,241,0.249)"/>
<rect x="734.8" y="310.4" width="1.1" height="1.1" fill="rgba(237,242,241,0.09)"/>
<rect x="110.5" y="560.4" width="1.0" height="1.0" fill="rgba(237,242,241,0.08)"/>
<rect x="1376.7" y="222.3" width="0.9" height="0.9" fill="rgba(237,242,241,0.09)"/>
<rect x="366.7" y="1072.3" width="0.5" height="0.5" fill="rgba(237,242,241,0.083)"/>
<rect x="816.2" y="17.6" width="0.4" height="0.4" fill="rgba(237,242,241,0.223)"/>
<rect x="1219.2" y="754.2" width="0.9" height="0.9" fill="rgba(237,242,241,0.121)"/>
<rect x="1227.7" y="449.1" width="1.2" height="1.2" fill="rgba(237,242,241,0.221)"/>
<rect x="65.5" y="1043.9" width="1.2" height="1.2" fill="rgba(237,242,241,0.111)"/>
<rect x="231.9" y="627.5" width="0.7" height="0.7" fill="rgba(237,242,241,0.238)"/>
<rect x="1210.7" y="405.4" width="0.8" height="0.8" fill="rgba(237,242,241,0.136)"/>
<rect x="679.0" y="1000.0" width="0.7" height="0.7" fill="rgba(237,242,241,0.213)"/>
<rect x="40.7" y="702.8" width="0.8" height="0.8" fill="rgba(237,242,241,0.164)"/>
<rect x="1179.6" y="187.6" width="1.2" height="1.2" fill="rgba(237,242,241,0.13)"/>
<rect x="703.0" y="780.2" width="1.2" height="1.2" fill="rgba(237,242,241,0.223)"/>
<rect x="455.1" y="561.4" width="0.6" height="0.6" fill="rgba(237,242,241,0.115)"/>
<rect x="758.3" y="533.5" width="1.3" height="1.3" fill="rgba(237,242,241,0.1)"/>
<rect x="229.7" y="741.7" width="1.0" height="1.0" fill="rgba(237,242,241,0.123)"/>
<rect x="139.0" y="201.7" width="0.5" height="0.5" fill="rgba(237,242,241,0.235)"/>
<rect x="641.8" y="146.0" width="0.6" height="0.6" fill="rgba(237,242,241,0.172)"/>
<rect x="616.7" y="806.8" width="0.6" height="0.6" fill="rgba(237,242,241,0.09)"/>
<rect x="1414.7" y="354.4" width="1.0" height="1.0" fill="rgba(237,242,241,0.218)"/>
<rect x="1135.9" y="1028.1" width="0.8" height="0.8" fill="rgba(237,242,241,0.197)"/>
<rect x="1087.6" y="56.1" width="0.9" height="0.9" fill="rgba(237,242,241,0.083)"/>
<rect x="1375.3" y="782.0" width="0.7" height="0.7" fill="rgba(237,242,241,0.16)"/>
<rect x="30.0" y="648.4" width="0.6" height="0.6" fill="rgba(237,242,241,0.204)"/>
<rect x="970.7" y="1070.4" width="0.7" height="0.7" fill="rgba(237,242,241,0.202)"/>
<rect x="439.3" y="853.5" width="0.8" height="0.8" fill="rgba(237,242,241,0.248)"/>
<rect x="1269.8" y="210.8" width="0.7" height="0.7" fill="rgba(237,242,241,0.059)"/>
<rect x="1326.3" y="733.0" width="1.2" height="1.2" fill="rgba(237,242,241,0.098)"/>
<rect x="1019.1" y="295.1" width="0.4" height="0.4" fill="rgba(237,242,241,0.171)"/>
<rect x="198.3" y="942.2" width="0.8" height="0.8" fill="rgba(237,242,241,0.144)"/>
<rect x="1340.9" y="826.9" width="0.6" height="0.6" fill="rgba(237,242,241,0.18)"/>
<rect x="1382.5" y="914.7" width="1.2" height="1.2" fill="rgba(237,242,241,0.108)"/>
<rect x="1115.5" y="1020.0" width="0.5" height="0.5" fill="rgba(237,242,241,0.244)"/>
<rect x="785.7" y="265.8" width="1.2" height="1.2" fill="rgba(237,242,241,0.067)"/>
<rect x="30.8" y="774.4" width="0.6" height="0.6" fill="rgba(237,242,241,0.059)"/>
<rect x="1162.1" y="925.9" width="0.5" height="0.5" fill="rgba(237,242,241,0.107)"/>
<rect x="1261.2" y="724.0" width="1.1" height="1.1" fill="rgba(237,242,241,0.165)"/>
<rect x="1224.3" y="18.0" width="1.1" height="1.1" fill="rgba(237,242,241,0.18)"/>
<rect x="276.3" y="716.1" width="0.7" height="0.7" fill="rgba(237,242,241,0.064)"/>
<rect x="135.3" y="620.6" width="1.1" height="1.1" fill="rgba(237,242,241,0.143)"/>
<rect x="207.5" y="1049.2" width="1.2" height="1.2" fill="rgba(237,242,241,0.072)"/>
<rect x="103.4" y="1031.1" width="1.1" height="1.1" fill="rgba(237,242,241,0.186)"/>
<rect x="389.5" y="158.6" width="0.8" height="0.8" fill="rgba(237,242,241,0.111)"/>
<rect x="786.2" y="712.4" width="1.3" height="1.3" fill="rgba(237,242,241,0.191)"/>
<rect x="823.1" y="444.0" width="1.3" height="1.3" fill="rgba(237,242,241,0.132)"/>
<rect x="1218.0" y="887.4" width="1.0" height="1.0" fill="rgba(237,242,241,0.235)"/>
<rect x="106.0" y="559.0" width="1.0" height="1.0" fill="rgba(237,242,241,0.119)"/>
<rect x="1369.9" y="802.8" width="1.1" height="1.1" fill="rgba(237,242,241,0.176)"/>
<rect x="1295.5" y="144.6" width="1.2" height="1.2" fill="rgba(237,242,241,0.104)"/>
<rect x="440.7" y="314.4" width="0.5" height="0.5" fill="rgba(237,242,241,0.134)"/>
<rect x="687.5" y="472.7" width="0.5" height="0.5" fill="rgba(237,242,241,0.125)"/>
<rect x="875.1" y="526.7" width="1.2" height="1.2" fill="rgba(237,242,241,0.203)"/>
<rect x="1043.5" y="255.8" width="1.1" height="1.1" fill="rgba(237,242,241,0.15)"/>
<rect x="532.0" y="339.1" width="1.3" height="1.3" fill="rgba(237,242,241,0.249)"/>
<rect x="490.3" y="573.3" width="0.9" height="0.9" fill="rgba(237,242,241,0.205)"/>
<rect x="611.1" y="741.6" width="0.6" height="0.6" fill="rgba(237,242,241,0.172)"/>
<rect x="394.9" y="392.1" width="1.1" height="1.1" fill="rgba(237,242,241,0.101)"/>
<rect x="841.4" y="212.7" width="1.2" height="1.2" fill="rgba(237,242,241,0.178)"/>
<rect x="1420.4" y="962.8" width="0.9" height="0.9" fill="rgba(237,242,241,0.184)"/>
<rect x="1217.4" y="214.1" width="1.1" height="1.1" fill="rgba(237,242,241,0.086)"/>
<rect x="849.9" y="879.6" width="1.1" height="1.1" fill="rgba(237,242,241,0.215)"/>
<rect x="1444.4" y="621.5" width="0.5" height="0.5" fill="rgba(237,242,241,0.139)"/>
<rect x="1233.8" y="1050.6" width="0.9" height="0.9" fill="rgba(237,242,241,0.248)"/>
<rect x="210.6" y="1054.7" width="1.1" height="1.1" fill="rgba(237,242,241,0.245)"/>
<rect x="856.8" y="852.2" width="0.5" height="0.5" fill="rgba(237,242,241,0.092)"/>
<rect x="911.8" y="687.6" width="0.5" height="0.5" fill="rgba(237,242,241,0.183)"/>
<rect x="884.2" y="323.3" width="0.8" height="0.8" fill="rgba(237,242,241,0.173)"/>
<rect x="1105.2" y="801.3" width="1.2" height="1.2" fill="rgba(237,242,241,0.089)"/>
<rect x="901.3" y="271.2" width="0.6" height="0.6" fill="rgba(237,242,241,0.172)"/>
<rect x="82.3" y="173.8" width="0.9" height="0.9" fill="rgba(237,242,241,0.139)"/>
<rect x="45.5" y="528.9" width="1.2" height="1.2" fill="rgba(237,242,241,0.229)"/>
<rect x="193.7" y="1063.1" width="1.1" height="1.1" fill="rgba(237,242,241,0.068)"/>
<rect x="753.8" y="749.5" width="1.2" height="1.2" fill="rgba(237,242,241,0.174)"/>
<rect x="50.0" y="669.6" width="1.2" height="1.2" fill="rgba(237,242,241,0.116)"/>
<rect x="1334.4" y="582.5" width="1.2" height="1.2" fill="rgba(237,242,241,0.158)"/>
<rect x="379.4" y="394.7" width="1.1" height="1.1" fill="rgba(237,242,241,0.131)"/>
<rect x="162.5" y="508.3" width="1.2" height="1.2" fill="rgba(237,242,241,0.088)"/>
<rect x="129.9" y="629.2" width="1.2" height="1.2" fill="rgba(237,242,241,0.208)"/>
<rect x="199.4" y="1020.4" width="0.7" height="0.7" fill="rgba(237,242,241,0.17)"/>
<rect x="841.2" y="216.6" width="1.0" height="1.0" fill="rgba(237,242,241,0.114)"/>
<rect x="972.3" y="37.7" width="1.2" height="1.2" fill="rgba(237,242,241,0.139)"/>
<rect x="115.3" y="885.6" width="1.2" height="1.2" fill="rgba(237,242,241,0.119)"/>
<rect x="568.2" y="143.9" width="1.0" height="1.0" fill="rgba(237,242,241,0.164)"/>
<rect x="635.0" y="1060.5" width="1.1" height="1.1" fill="rgba(237,242,241,0.225)"/>
<rect x="198.7" y="1084.6" width="1.3" height="1.3" fill="rgba(237,242,241,0.084)"/>
<rect x="962.5" y="213.1" width="1.2" height="1.2" fill="rgba(237,242,241,0.156)"/>
<rect x="896.3" y="1024.2" width="0.6" height="0.6" fill="rgba(237,242,241,0.133)"/>
<rect x="1106.4" y="276.9" width="0.5" height="0.5" fill="rgba(237,242,241,0.22)"/>
<rect x="1015.6" y="805.5" width="0.5" height="0.5" fill="rgba(237,242,241,0.246)"/>
<rect x="179.0" y="550.2" width="0.7" height="0.7" fill="rgba(237,242,241,0.078)"/>
<rect x="1401.1" y="512.7" width="0.6" height="0.6" fill="rgba(237,242,241,0.13)"/>
<rect x="829.5" y="776.5" width="0.8" height="0.8" fill="rgba(237,242,241,0.074)"/>
<rect x="1019.1" y="336.7" width="1.2" height="1.2" fill="rgba(237,242,241,0.143)"/>
<rect x="506.4" y="429.7" width="1.1" height="1.1" fill="rgba(237,242,241,0.104)"/>
<rect x="605.5" y="1058.0" width="1.2" height="1.2" fill="rgba(237,242,241,0.218)"/>
<rect x="1182.2" y="441.6" width="0.8" height="0.8" fill="rgba(237,242,241,0.08)"/>
<rect x="455.2" y="453.3" width="1.1" height="1.1" fill="rgba(237,242,241,0.177)"/>
<rect x="474.9" y="148.0" width="0.9" height="0.9" fill="rgba(237,242,241,0.116)"/>
<rect x="353.4" y="137.6" width="0.6" height="0.6" fill="rgba(237,242,241,0.179)"/>
<rect x="1303.4" y="485.1" width="0.9" height="0.9" fill="rgba(237,242,241,0.138)"/>
<rect x="744.3" y="833.3" width="0.5" height="0.5" fill="rgba(237,242,241,0.128)"/>
<rect x="891.2" y="32.3" width="1.0" height="1.0" fill="rgba(237,242,241,0.113)"/>
<rect x="478.4" y="97.7" width="0.6" height="0.6" fill="rgba(237,242,241,0.113)"/>
<rect x="425.8" y="47.2" width="0.5" height="0.5" fill="rgba(237,242,241,0.246)"/>
<rect x="1412.7" y="798.3" width="0.4" height="0.4" fill="rgba(237,242,241,0.107)"/>
<rect x="1274.6" y="118.6" width="0.9" height="0.9" fill="rgba(237,242,241,0.218)"/>
<rect x="853.9" y="377.8" width="0.6" height="0.6" fill="rgba(237,242,241,0.09)"/>
<rect x="260.5" y="369.2" width="0.7" height="0.7" fill="rgba(237,242,241,0.244)"/>
<rect x="606.6" y="1065.7" width="0.6" height="0.6" fill="rgba(237,242,241,0.073)"/>
<rect x="6.9" y="13.2" width="1.0" height="1.0" fill="rgba(237,242,241,0.128)"/>
<rect x="198.2" y="478.3" width="1.2" height="1.2" fill="rgba(237,242,241,0.174)"/>
<rect x="184.6" y="1022.2" width="0.8" height="0.8" fill="rgba(237,242,241,0.189)"/>
<rect x="283.1" y="39.0" width="0.6" height="0.6" fill="rgba(237,242,241,0.098)"/>
<rect x="239.4" y="100.1" width="1.3" height="1.3" fill="rgba(237,242,241,0.088)"/>
<rect x="1438.3" y="31.7" width="1.2" height="1.2" fill="rgba(237,242,241,0.127)"/>
<rect x="902.5" y="718.9" width="0.8" height="0.8" fill="rgba(237,242,241,0.125)"/>
<rect x="1211.4" y="243.4" width="1.0" height="1.0" fill="rgba(237,242,241,0.113)"/>
<rect x="190.3" y="21.4" width="0.5" height="0.5" fill="rgba(237,242,241,0.121)"/>
<rect x="346.2" y="733.2" width="1.1" height="1.1" fill="rgba(237,242,241,0.052)"/>
<rect x="179.1" y="20.6" width="0.5" height="0.5" fill="rgba(237,242,241,0.132)"/>
<rect x="1287.3" y="601.8" width="0.5" height="0.5" fill="rgba(237,242,241,0.151)"/>
<rect x="952.1" y="136.0" width="0.4" height="0.4" fill="rgba(237,242,241,0.175)"/>
<rect x="202.3" y="808.2" width="1.0" height="1.0" fill="rgba(237,242,241,0.146)"/>
<rect x="860.0" y="401.5" width="1.2" height="1.2" fill="rgba(237,242,241,0.125)"/>
<rect x="1331.0" y="51.4" width="0.7" height="0.7" fill="rgba(237,242,241,0.09)"/>
<rect x="755.8" y="259.1" width="0.7" height="0.7" fill="rgba(237,242,241,0.119)"/>
<rect x="526.7" y="63.8" width="1.0" height="1.0" fill="rgba(237,242,241,0.084)"/>
<rect x="121.1" y="807.0" width="1.0" height="1.0" fill="rgba(237,242,241,0.059)"/>
<rect x="440.1" y="372.4" width="1.2" height="1.2" fill="rgba(237,242,241,0.091)"/>
<rect x="983.1" y="389.1" width="1.1" height="1.1" fill="rgba(237,242,241,0.092)"/>
<rect x="1008.4" y="101.2" width="0.7" height="0.7" fill="rgba(237,242,241,0.243)"/>
<rect x="1230.5" y="323.3" width="0.6" height="0.6" fill="rgba(237,242,241,0.117)"/>
<rect x="1240.5" y="1051.2" width="0.9" height="0.9" fill="rgba(237,242,241,0.174)"/>
<rect x="437.0" y="525.1" width="0.5" height="0.5" fill="rgba(237,242,241,0.13)"/>
<rect x="517.2" y="736.4" width="0.7" height="0.7" fill="rgba(237,242,241,0.229)"/>
<rect x="1118.3" y="129.9" width="0.5" height="0.5" fill="rgba(237,242,241,0.085)"/>
<rect x="1198.0" y="999.0" width="1.1" height="1.1" fill="rgba(237,242,241,0.064)"/>
<rect x="69.3" y="397.9" width="0.7" height="0.7" fill="rgba(237,242,241,0.127)"/>
<rect x="1010.9" y="883.1" width="0.9" height="0.9" fill="rgba(237,242,241,0.055)"/>
<rect x="842.7" y="393.6" width="0.5" height="0.5" fill="rgba(237,242,241,0.142)"/>
<rect x="984.2" y="123.9" width="0.9" height="0.9" fill="rgba(237,242,241,0.172)"/>
<rect x="41.6" y="1001.3" width="0.9" height="0.9" fill="rgba(237,242,241,0.074)"/>
<rect x="1344.7" y="971.6" width="1.2" height="1.2" fill="rgba(237,242,241,0.121)"/>
<rect x="564.7" y="634.6" width="0.5" height="0.5" fill="rgba(237,242,241,0.201)"/>
<rect x="1126.9" y="296.9" width="0.5" height="0.5" fill="rgba(237,242,241,0.243)"/>
<rect x="830.7" y="746.2" width="0.4" height="0.4" fill="rgba(237,242,241,0.226)"/>
<rect x="1444.1" y="418.0" width="1.2" height="1.2" fill="rgba(237,242,241,0.237)"/>
<rect x="1175.8" y="828.6" width="1.1" height="1.1" fill="rgba(237,242,241,0.191)"/>
<rect x="508.4" y="15.0" width="0.8" height="0.8" fill="rgba(237,242,241,0.18)"/>
<rect x="695.6" y="263.6" width="0.8" height="0.8" fill="rgba(237,242,241,0.241)"/>
<rect x="65.0" y="937.7" width="1.1" height="1.1" fill="rgba(237,242,241,0.131)"/>
<rect x="915.0" y="1034.5" width="0.7" height="0.7" fill="rgba(237,242,241,0.084)"/>
<rect x="1208.7" y="412.7" width="1.1" height="1.1" fill="rgba(237,242,241,0.151)"/>
<rect x="654.5" y="787.3" width="0.5" height="0.5" fill="rgba(237,242,241,0.205)"/>
<rect x="1305.2" y="941.9" width="0.9" height="0.9" fill="rgba(237,242,241,0.05)"/>
<rect x="883.2" y="140.0" width="0.5" height="0.5" fill="rgba(237,242,241,0.117)"/>
<rect x="615.4" y="1029.1" width="1.3" height="1.3" fill="rgba(237,242,241,0.054)"/>
<rect x="368.2" y="363.7" width="1.3" height="1.3" fill="rgba(237,242,241,0.181)"/>
<rect x="913.7" y="299.3" width="0.9" height="0.9" fill="rgba(237,242,241,0.214)"/>
<rect x="343.6" y="449.1" width="0.8" height="0.8" fill="rgba(237,242,241,0.11)"/>
<rect x="1223.6" y="672.9" width="0.7" height="0.7" fill="rgba(237,242,241,0.19)"/>
<rect x="1406.3" y="431.2" width="1.0" height="1.0" fill="rgba(237,242,241,0.18)"/>
<rect x="341.6" y="1056.4" width="0.6" height="0.6" fill="rgba(237,242,241,0.077)"/>
<rect x="1434.2" y="987.6" width="1.0" height="1.0" fill="rgba(237,242,241,0.08)"/>
<rect x="1057.5" y="570.8" width="1.2" height="1.2" fill="rgba(237,242,241,0.092)"/>
<rect x="1102.2" y="176.0" width="0.5" height="0.5" fill="rgba(237,242,241,0.147)"/>
<rect x="154.0" y="15.9" width="0.8" height="0.8" fill="rgba(237,242,241,0.175)"/>
<rect x="653.5" y="956.1" width="0.8" height="0.8" fill="rgba(237,242,241,0.067)"/>
<rect x="188.4" y="355.9" width="1.0" height="1.0" fill="rgba(237,242,241,0.059)"/>
<rect x="311.8" y="183.1" width="1.3" height="1.3" fill="rgba(237,242,241,0.096)"/>
<rect x="1169.3" y="605.5" width="1.1" height="1.1" fill="rgba(237,242,241,0.064)"/>
<rect x="1220.6" y="695.9" width="0.4" height="0.4" fill="rgba(237,242,241,0.099)"/>
<rect x="1010.1" y="524.5" width="0.5" height="0.5" fill="rgba(237,242,241,0.234)"/>
<rect x="429.2" y="1074.9" width="0.5" height="0.5" fill="rgba(237,242,241,0.097)"/>
<rect x="1177.8" y="406.0" width="0.7" height="0.7" fill="rgba(237,242,241,0.09)"/>
<rect x="320.2" y="349.3" width="1.3" height="1.3" fill="rgba(237,242,241,0.057)"/>
<rect x="457.0" y="695.1" width="0.8" height="0.8" fill="rgba(237,242,241,0.233)"/>
<rect x="587.1" y="320.1" width="0.9" height="0.9" fill="rgba(237,242,241,0.244)"/>
<rect x="862.9" y="749.4" width="1.2" height="1.2" fill="rgba(237,242,241,0.064)"/>
<rect x="1242.4" y="96.7" width="0.6" height="0.6" fill="rgba(237,242,241,0.11)"/>
<rect x="222.8" y="302.0" width="0.8" height="0.8" fill="rgba(237,242,241,0.1)"/>
<rect x="252.3" y="203.0" width="1.0" height="1.0" fill="rgba(237,242,241,0.103)"/>
<rect x="1144.0" y="867.7" width="0.6" height="0.6" fill="rgba(237,242,241,0.106)"/>
<rect x="516.7" y="289.5" width="1.0" height="1.0" fill="rgba(237,242,241,0.206)"/>
<rect x="435.3" y="791.6" width="1.1" height="1.1" fill="rgba(237,242,241,0.107)"/>
<rect x="1028.3" y="490.9" width="0.7" height="0.7" fill="rgba(237,242,241,0.167)"/>
<rect x="1081.5" y="894.7" width="1.1" height="1.1" fill="rgba(237,242,241,0.073)"/>
<rect x="63.0" y="525.7" width="1.0" height="1.0" fill="rgba(237,242,241,0.151)"/>
<rect x="618.8" y="572.6" width="1.1" height="1.1" fill="rgba(237,242,241,0.137)"/>
<rect x="620.9" y="227.6" width="1.2" height="1.2" fill="rgba(237,242,241,0.071)"/>
<rect x="429.0" y="988.3" width="0.9" height="0.9" fill="rgba(237,242,241,0.124)"/>
<rect x="473.2" y="142.6" width="0.9" height="0.9" fill="rgba(237,242,241,0.183)"/>
<rect x="102.7" y="406.9" width="0.7" height="0.7" fill="rgba(237,242,241,0.147)"/>
<rect x="48.8" y="554.9" width="0.7" height="0.7" fill="rgba(237,242,241,0.2)"/>
<rect x="585.0" y="303.6" width="0.7" height="0.7" fill="rgba(237,242,241,0.125)"/>
<rect x="39.0" y="824.4" width="0.8" height="0.8" fill="rgba(237,242,241,0.067)"/>
<rect x="586.9" y="121.0" width="1.0" height="1.0" fill="rgba(237,242,241,0.224)"/>
<rect x="392.4" y="236.7" width="1.0" height="1.0" fill="rgba(237,242,241,0.196)"/>
<rect x="579.1" y="1053.9" width="1.1" height="1.1" fill="rgba(237,242,241,0.249)"/>
<rect x="544.8" y="643.9" width="0.4" height="0.4" fill="rgba(237,242,241,0.214)"/>
<rect x="1099.7" y="837.1" width="1.3" height="1.3" fill="rgba(237,242,241,0.119)"/>
<rect x="1203.3" y="483.8" width="0.4" height="0.4" fill="rgba(237,242,241,0.182)"/>
<rect x="311.8" y="541.0" width="1.2" height="1.2" fill="rgba(237,242,241,0.161)"/>
<rect x="922.7" y="68.4" width="0.9" height="0.9" fill="rgba(237,242,241,0.056)"/>
<rect x="145.3" y="884.7" width="0.5" height="0.5" fill="rgba(237,242,241,0.168)"/>
<rect x="29.8" y="556.9" width="1.1" height="1.1" fill="rgba(237,242,241,0.201)"/>
<rect x="6.4" y="54.7" width="1.1" height="1.1" fill="rgba(237,242,241,0.179)"/>
<rect x="243.9" y="1035.4" width="0.8" height="0.8" fill="rgba(237,242,241,0.177)"/>
<rect x="196.9" y="532.4" width="1.1" height="1.1" fill="rgba(237,242,241,0.219)"/>
<rect x="1031.6" y="987.9" width="0.6" height="0.6" fill="rgba(237,242,241,0.192)"/>
<rect x="926.3" y="506.0" width="0.8" height="0.8" fill="rgba(237,242,241,0.059)"/>
<rect x="565.9" y="240.7" width="0.5" height="0.5" fill="rgba(237,242,241,0.147)"/>
<rect x="1163.2" y="878.2" width="0.7" height="0.7" fill="rgba(237,242,241,0.183)"/>
<rect x="391.1" y="519.4" width="1.0" height="1.0" fill="rgba(237,242,241,0.178)"/>
<rect x="523.8" y="22.9" width="1.2" height="1.2" fill="rgba(237,242,241,0.208)"/>
<rect x="1213.0" y="653.0" width="1.0" height="1.0" fill="rgba(237,242,241,0.206)"/>
<rect x="461.3" y="886.3" width="1.0" height="1.0" fill="rgba(237,242,241,0.233)"/>
<rect x="1092.8" y="77.8" width="0.6" height="0.6" fill="rgba(237,242,241,0.097)"/>
<rect x="1117.1" y="123.7" width="0.6" height="0.6" fill="rgba(237,242,241,0.179)"/>
<rect x="1064.7" y="254.4" width="0.6" height="0.6" fill="rgba(237,242,241,0.18)"/>
<rect x="1229.8" y="539.7" width="0.7" height="0.7" fill="rgba(237,242,241,0.052)"/>
<rect x="935.9" y="409.9" width="1.3" height="1.3" fill="rgba(237,242,241,0.211)"/>
<rect x="1068.8" y="311.6" width="1.2" height="1.2" fill="rgba(237,242,241,0.204)"/>
<rect x="484.2" y="566.4" width="0.5" height="0.5" fill="rgba(237,242,241,0.222)"/>
<rect x="947.9" y="879.8" width="1.1" height="1.1" fill="rgba(237,242,241,0.058)"/>
<rect x="1387.6" y="161.6" width="0.9" height="0.9" fill="rgba(237,242,241,0.096)"/>
<rect x="42.6" y="336.7" width="1.0" height="1.0" fill="rgba(237,242,241,0.23)"/>
<rect x="227.1" y="387.9" width="0.6" height="0.6" fill="rgba(237,242,241,0.115)"/>
<rect x="98.2" y="380.5" width="1.1" height="1.1" fill="rgba(237,242,241,0.191)"/>
<rect x="45.1" y="824.7" width="1.0" height="1.0" fill="rgba(237,242,241,0.203)"/>
<rect x="1040.8" y="608.7" width="0.4" height="0.4" fill="rgba(237,242,241,0.081)"/>
<rect x="1237.9" y="92.4" width="0.5" height="0.5" fill="rgba(237,242,241,0.106)"/>
<rect x="305.6" y="1050.0" width="0.6" height="0.6" fill="rgba(237,242,241,0.185)"/>
<rect x="269.7" y="1037.9" width="0.8" height="0.8" fill="rgba(237,242,241,0.173)"/>
<rect x="82.8" y="903.0" width="0.7" height="0.7" fill="rgba(237,242,241,0.204)"/>
<path d="M 865.6 668.7 Q 864.2 684.4 873.9 696.7" fill="none" stroke="rgba(142,175,186,0.45)" stroke-width="1.4"/>
<path d="M 865.6 668.7 Q 870.2 669.3 873.9 666.6" fill="none" stroke="rgba(142,175,186,0.45)" stroke-width="1.4"/>
<path d="M 868.6 663.6 Q 875.4 663.6 880.3 659.0" fill="none" stroke="rgba(142,175,186,0.45)" stroke-width="1.4"/>
<path d="M 868.6 663.6 Q 784.3 721.8 763.4 822.1" fill="none" stroke="rgba(142,175,186,0.45)" stroke-width="1.4"/>
<path d="M 868.6 663.6 Q 782.9 728.7 765.7 834.9" fill="none" stroke="rgba(142,175,186,0.45)" stroke-width="1.4"/>
<path d="M 864.5 721.5 Q 820.3 741.8 802.3 787.0" fill="none" stroke="rgba(142,175,186,0.45)" stroke-width="1.4"/>
<path d="M 864.5 721.5 Q 842.7 742.1 841.1 772.1" fill="none" stroke="rgba(142,175,186,0.45)" stroke-width="1.4"/>
<path d="M 864.5 721.5 Q 916.8 637.9 896.9 541.3" fill="none" stroke="rgba(142,175,186,0.45)" stroke-width="1.4"/>
<path d="M 864.5 721.5 Q 879.6 702.9 877.7 678.9" fill="none" stroke="rgba(142,175,186,0.45)" stroke-width="1.4"/>
<path d="M 864.5 721.5 Q 868.9 737.4 883.0 745.8" fill="none" stroke="rgba(142,175,186,0.45)" stroke-width="1.4"/>
<path d="M 755.5 97.3 Q 500.1 534.4 495.2 1040.7" fill="none" stroke="rgba(142,175,186,0.45)" stroke-width="1.4"/>
<path d="M 755.5 97.3 Q 793.7 218.9 905.2 280.6" fill="none" stroke="rgba(142,175,186,0.45)" stroke-width="1.4"/>
<path d="M 755.5 97.3 Q 573.3 470.6 648.8 879.1" fill="none" stroke="rgba(142,175,186,0.45)" stroke-width="1.4"/>
<path d="M 755.5 97.3 Q 735.9 63.0 698.2 51.7" fill="none" stroke="rgba(142,175,186,0.45)" stroke-width="1.4"/>
<path d="M 755.5 97.3 Q 795.1 83.0 814.0 45.3" fill="none" stroke="rgba(142,175,186,0.45)" stroke-width="1.4"/>
<path d="M 755.5 97.3 Q 732.9 191.1 781.1 274.6" fill="none" stroke="rgba(142,175,186,0.45)" stroke-width="1.4"/>
<path d="M 755.5 97.3 Q 562.0 172.5 473.8 360.5" fill="none" stroke="rgba(142,175,186,0.45)" stroke-width="1.4"/>
<path d="M 845.6 463.3 Q 851.6 468.5 859.6 468.2" fill="none" stroke="rgba(142,175,186,0.45)" stroke-width="1.4"/>
<path d="M 845.6 463.3 Q 858.7 465.1 869.4 457.5" fill="none" stroke="rgba(142,175,186,0.45)" stroke-width="1.4"/>
<path d="M 845.6 463.3 Q 892.2 533.5 974.2 552.2" fill="none" stroke="rgba(142,175,186,0.45)" stroke-width="1.4"/>
<path d="M 845.6 463.3 Q 962.2 325.6 951.6 145.6" fill="none" stroke="rgba(142,175,186,0.45)" stroke-width="1.4"/>
<path d="M 845.6 463.3 Q 888.6 501.8 946.3 500.1" fill="none" stroke="rgba(142,175,186,0.45)" stroke-width="1.4"/>
<path d="M 845.6 463.3 Q 889.9 392.6 873.2 310.8" fill="none" stroke="rgba(142,175,186,0.45)" stroke-width="1.4"/>
<path d="M 845.6 463.3 Q 826.4 490.7 831.3 523.8" fill="none" stroke="rgba(142,175,186,0.45)" stroke-width="1.4"/>
<path d="M 866.0 668.3 Q 865.7 667.5 864.9 667.0" fill="none" stroke="rgba(237,242,241,0.9)" stroke-width="2.4"/>
<path d="M 864.9 667.0 Q 864.9 668.0 865.6 668.7" fill="none" stroke="rgba(237,242,241,0.9)" stroke-width="2.4"/>
<path d="M 865.6 668.7 Q 868.2 666.8 868.6 663.6" fill="none" stroke="rgba(237,242,241,0.9)" stroke-width="2.4"/>
<path d="M 868.6 663.6 Q 855.0 691.8 864.5 721.5" fill="none" stroke="rgba(237,242,241,0.9)" stroke-width="2.4"/>
<path d="M 864.5 721.5 Q 828.3 745.8 818.9 788.3" fill="none" stroke="rgba(237,242,241,0.9)" stroke-width="2.4"/>
<path d="M 818.9 788.3 Q 855.0 764.0 864.5 721.5" fill="none" stroke="rgba(237,242,241,0.9)" stroke-width="2.4"/>
<path d="M 864.5 721.5 Q 934.8 387.6 755.5 97.3" fill="none" stroke="rgba(237,242,241,0.9)" stroke-width="2.4"/>
<path d="M 755.5 97.3 Q 727.4 298.3 845.6 463.3" fill="none" stroke="rgba(237,242,241,0.9)" stroke-width="2.4"/>
<circle cx="873.9" cy="696.7" r="1.6" fill="rgba(142,175,186,0.85)"/>
<circle cx="873.9" cy="666.6" r="1.6" fill="rgba(142,175,186,0.85)"/>
<circle cx="880.3" cy="659.0" r="1.6" fill="rgba(142,175,186,0.85)"/>
<circle cx="763.4" cy="822.1" r="1.6" fill="rgba(142,175,186,0.85)"/>
<circle cx="765.7" cy="834.9" r="1.6" fill="rgba(142,175,186,0.85)"/>
<circle cx="802.3" cy="787.0" r="1.6" fill="rgba(142,175,186,0.85)"/>
<circle cx="841.1" cy="772.1" r="1.6" fill="rgba(142,175,186,0.85)"/>
<circle cx="896.9" cy="541.3" r="1.6" fill="rgba(142,175,186,0.85)"/>
<circle cx="877.7" cy="678.9" r="1.6" fill="rgba(142,175,186,0.85)"/>
<circle cx="883.0" cy="745.8" r="1.6" fill="rgba(142,175,186,0.85)"/>
<circle cx="495.2" cy="1040.7" r="1.6" fill="rgba(142,175,186,0.85)"/>
<circle cx="905.2" cy="280.6" r="1.6" fill="rgba(142,175,186,0.85)"/>
<circle cx="648.8" cy="879.1" r="1.6" fill="rgba(142,175,186,0.85)"/>
<circle cx="698.2" cy="51.7" r="1.6" fill="rgba(142,175,186,0.85)"/>
<circle cx="814.0" cy="45.3" r="1.6" fill="rgba(142,175,186,0.85)"/>
<circle cx="781.1" cy="274.6" r="1.6" fill="rgba(142,175,186,0.85)"/>
<circle cx="473.8" cy="360.5" r="1.6" fill="rgba(142,175,186,0.85)"/>
<circle cx="859.6" cy="468.2" r="1.6" fill="rgba(142,175,186,0.85)"/>
<circle cx="869.4" cy="457.5" r="1.6" fill="rgba(142,175,186,0.85)"/>
<circle cx="974.2" cy="552.2" r="1.6" fill="rgba(142,175,186,0.85)"/>
<circle cx="951.6" cy="145.6" r="1.6" fill="rgba(142,175,186,0.85)"/>
<circle cx="946.3" cy="500.1" r="1.6" fill="rgba(142,175,186,0.85)"/>
<circle cx="873.2" cy="310.8" r="1.6" fill="rgba(142,175,186,0.85)"/>
<circle cx="831.3" cy="523.8" r="1.6" fill="rgba(142,175,186,0.85)"/>
<circle cx="866.0" cy="668.3" r="22" fill="rgba(232,192,122,0.18)"/>
<circle cx="866.0" cy="668.3" r="8" fill="rgba(232,192,122,0.4)"/>
<circle cx="866.0" cy="668.3" r="3.6" fill="rgba(232,192,122,1)"/>
<text x="882.0" y="674.3" fill="rgba(232,192,122,0.72)" font-family="PingFang SC, Hiragino Sans GB, Microsoft YaHei, sans-serif" font-size="21">尤溪小学</text>
<circle cx="864.9" cy="667.0" r="13" fill="rgba(237,242,241,0.16)"/>
<circle cx="864.9" cy="667.0" r="3" fill="rgba(237,242,241,0.95)"/>
<circle cx="865.6" cy="668.7" r="13" fill="rgba(237,242,241,0.16)"/>
<circle cx="865.6" cy="668.7" r="3" fill="rgba(237,242,241,0.95)"/>
<circle cx="868.6" cy="663.6" r="13" fill="rgba(237,242,241,0.16)"/>
<circle cx="868.6" cy="663.6" r="3" fill="rgba(237,242,241,0.95)"/>
<circle cx="864.5" cy="721.5" r="13" fill="rgba(237,242,241,0.16)"/>
<circle cx="864.5" cy="721.5" r="3" fill="rgba(237,242,241,0.95)"/>
<circle cx="818.9" cy="788.3" r="13" fill="rgba(237,242,241,0.16)"/>
<circle cx="818.9" cy="788.3" r="3" fill="rgba(237,242,241,0.95)"/>
<text x="834.9" y="794.3" fill="rgba(237,242,241,0.72)" font-family="PingFang SC, Hiragino Sans GB, Microsoft YaHei, sans-serif" font-size="21">厦门</text>
<circle cx="864.5" cy="721.5" r="13" fill="rgba(237,242,241,0.16)"/>
<circle cx="864.5" cy="721.5" r="3" fill="rgba(237,242,241,0.95)"/>
<circle cx="755.5" cy="97.3" r="13" fill="rgba(237,242,241,0.16)"/>
<circle cx="755.5" cy="97.3" r="3" fill="rgba(237,242,241,0.95)"/>
<text x="771.5" y="103.3" fill="rgba(237,242,241,0.72)" font-family="PingFang SC, Hiragino Sans GB, Microsoft YaHei, sans-serif" font-size="21">北京</text>
<circle cx="845.6" cy="463.3" r="13" fill="rgba(237,242,241,0.16)"/>
<circle cx="845.6" cy="463.3" r="3" fill="rgba(237,242,241,0.95)"/>
<text x="861.6" y="469.3" fill="rgba(237,242,241,0.72)" font-family="PingFang SC, Hiragino Sans GB, Microsoft YaHei, sans-serif" font-size="21">南京</text>
</svg>