<svg xmlns="http://www.w3.org/2000/svg" width="1448" height="1086" viewBox="0 0 1448 1086">
<rect width="1448" height="1086" fill="#f5f7f6"/>
<line x1="157.0" y1="0" x2="157.0" y2="1086" stroke="rgba(54,91,109,0.055)"/>
<line x1="254.8" y1="0" x2="254.8" y2="1086" stroke="rgba(54,91,109,0.055)"/>
<line x1="352.5" y1="0" x2="352.5" y2="1086" stroke="rgba(54,91,109,0.055)"/>
<line x1="450.3" y1="0" x2="450.3" y2="1086" stroke="rgba(54,91,109,0.055)"/>
<line x1="548.0" y1="0" x2="548.0" y2="1086" stroke="rgba(54,91,109,0.055)"/>
<line x1="645.8" y1="0" x2="645.8" y2="1086" stroke="rgba(54,91,109,0.055)"/>
<line x1="743.6" y1="0" x2="743.6" y2="1086" stroke="rgba(54,91,109,0.055)"/>
<line x1="841.3" y1="0" x2="841.3" y2="1086" stroke="rgba(54,91,109,0.055)"/>
<line x1="939.1" y1="0" x2="939.1" y2="1086" stroke="rgba(54,91,109,0.055)"/>
<line x1="1036.8" y1="0" x2="1036.8" y2="1086" stroke="rgba(54,91,109,0.055)"/>
<line x1="1134.6" y1="0" x2="1134.6" y2="1086" stroke="rgba(54,91,109,0.055)"/>
<line x1="1232.3" y1="0" x2="1232.3" y2="1086" stroke="rgba(54,91,109,0.055)"/>
<line x1="1330.1" y1="0" x2="1330.1" y2="1086" stroke="rgba(54,91,109,0.055)"/>
<line x1="0" y1="948.8" x2="1448" y2="948.8" stroke="rgba(54,91,109,0.055)"/>
<line x1="0" y1="842.9" x2="1448" y2="842.9" stroke="rgba(54,91,109,0.055)"/>
<line x1="0" y1="732.6" x2="1448" y2="732.6" stroke="rgba(54,91,109,0.055)"/>
<line x1="0" y1="616.7" x2="1448" y2="616.7" stroke="rgba(54,91,109,0.055)"/>
<line x1="0" y1="493.4" x2="1448" y2="493.4" stroke="rgba(54,91,109,0.055)"/>
<line x1="0" y1="360.7" x2="1448" y2="360.7" stroke="rgba(54,91,109,0.055)"/>
<line x1="0" y1="215.8" x2="1448" y2="215.8" stroke="rgba(54,91,109,0.055)"/>
<line x1="0" y1="55.0" x2="1448" y2="55.0" stroke="rgba(54,91,109,0.055)"/>
<path d="M 129.6 506.1 L 164.8 573.2 L 217.6 607.1 L 245.0 682.4 L 278.2 728.1 L 352.5 770.7 L 430.7 795.0 L 493.3 777.3 L 571.5 772.9 L 616.5 825.6 L 681.0 883.6 L 747.5 921.6 L 813.9 917.4 L 849.1 946.7 L 868.7 923.7 L 900.0 906.9 L 958.6 887.8 L 1009.4 855.8 L 1040.7 795.0 L 1070.1 728.1 L 1060.3 677.8 L 1091.6 616.7 L 1062.2 556.0 L 1077.9 518.7 L 1115.0 490.8 L 1193.2 436.3 L 1253.8 366.2 L 1320.3 266.6 L 1236.2 251.9 L 1181.5 209.7 L 1134.6 121.5 L 1064.2 239.9 L 1005.5 310.1 L 943.0 346.8 L 860.9 371.7 L 802.2 425.7 L 724.0 446.8 L 645.8 423.0 L 567.6 425.7 L 489.4 349.6 L 407.3 245.9 L 321.2 298.6 L 254.8 360.7 L 215.7 441.5 L 129.6 506.1 Z" fill="rgba(54,91,109,0.025)" stroke="rgba(54,91,109,0.2)" stroke-width="1.5"/>
<path d="M 815.9 965.4 L 843.3 988.1 L 860.9 963.3 L 849.1 948.8 L 825.7 946.7 L 815.9 965.4 Z" fill="rgba(54,91,109,0.025)" stroke="rgba(54,91,109,0.2)" stroke-width="1.5"/>
<path d="M 1036.8 834.3 L 1056.4 906.9 L 1072.0 868.7 L 1066.1 836.4 L 1036.8 834.3 Z" fill="rgba(54,91,109,0.025)" stroke="rgba(54,91,109,0.2)" stroke-width="1.5"/>
<path d="M 1023.7 792.1 Q 1023.6 800.1 1028.0 806.6" fill="none" stroke="rgba(113,131,140,0.25)" stroke-width="1.2"/>
<path d="M 1023.7 792.1 Q 1026.0 792.3 1028.0 791.0" fill="none" stroke="rgba(113,131,140,0.25)" stroke-width="1.2"/>
<path d="M 1025.3 789.5 Q 1028.7 789.3 1031.3 787.1" fill="none" stroke="rgba(113,131,140,0.25)" stroke-width="1.2"/>
<path d="M 1025.3 789.5 Q 984.9 821.8 970.7 871.6" fill="none" stroke="rgba(113,131,140,0.25)" stroke-width="1.2"/>
<path d="M 1025.3 789.5 Q 984.4 825.3 971.9 878.3" fill="none" stroke="rgba(113,131,140,0.25)" stroke-width="1.2"/>
<path d="M 1023.1 819.5 Q 1001.6 831.3 990.9 853.4" fill="none" stroke="rgba(113,131,140,0.25)" stroke-width="1.2"/>
<path d="M 1023.1 819.5 Q 1012.9 830.7 1011.0 845.7" fill="none" stroke="rgba(113,131,140,0.25)" stroke-width="1.2"/>
<path d="M 1023.1 819.5 Q 1046.5 775.5 1039.9 726.1" fill="none" stroke="rgba(113,131,140,0.25)" stroke-width="1.2"/>
<path d="M 1023.1 819.5 Q 1030.1 809.5 1030.0 797.4" fill="none" stroke="rgba(113,131,140,0.25)" stroke-width="1.2"/>
<path d="M 1023.1 819.5 Q 1025.9 827.3 1032.7 832.1" fill="none" stroke="rgba(113,131,140,0.25)" stroke-width="1.2"/>
<path d="M 966.6 495.9 Q 820.9 718.9 831.7 985.0" fill="none" stroke="rgba(113,131,140,0.25)" stroke-width="1.2"/>
<path d="M 966.6 495.9 Q 990.2 555.8 1044.2 591.0" fill="none" stroke="rgba(113,131,140,0.25)" stroke-width="1.2"/>
<path d="M 966.6 495.9 Q 874.1 689.7 911.3 901.2" fill="none" stroke="rgba(113,131,140,0.25)" stroke-width="1.2"/>
<path d="M 966.6 495.9 Q 955.5 479.4 936.9 472.3" fill="none" stroke="rgba(113,131,140,0.25)" stroke-width="1.2"/>
<path d="M 966.6 495.9 Q 986.1 487.3 996.9 468.9" fill="none" stroke="rgba(113,131,140,0.25)" stroke-width="1.2"/>
<path d="M 966.6 495.9 Q 958.6 544.0 979.9 587.8" fill="none" stroke="rgba(113,131,140,0.25)" stroke-width="1.2"/>
<path d="M 966.6 495.9 Q 871.8 540.8 820.6 632.4" fill="none" stroke="rgba(113,131,140,0.25)" stroke-width="1.2"/>
<path d="M 1013.4 685.6 Q 1016.6 688.1 1020.6 688.2" fill="none" stroke="rgba(113,131,140,0.25)" stroke-width="1.2"/>
<path d="M 1013.4 685.6 Q 1020.0 686.1 1025.7 682.6" fill="none" stroke="rgba(113,131,140,0.25)" stroke-width="1.2"/>
<path d="M 1013.4 685.6 Q 1039.3 719.3 1080.0 731.7" fill="none" stroke="rgba(113,131,140,0.25)" stroke-width="1.2"/>
<path d="M 1013.4 685.6 Q 1067.2 612.1 1068.3 521.0" fill="none" stroke="rgba(113,131,140,0.25)" stroke-width="1.2"/>
<path d="M 1013.4 685.6 Q 1036.4 703.5 1065.6 704.7" fill="none" stroke="rgba(113,131,140,0.25)" stroke-width="1.2"/>
<path d="M 1013.4 685.6 Q 1033.1 648.4 1027.6 606.6" fill="none" stroke="rgba(113,131,140,0.25)" stroke-width="1.2"/>
<path d="M 1013.4 685.6 Q 1004.6 700.1 1005.9 717.0" fill="none" stroke="rgba(113,131,140,0.25)" stroke-width="1.2"/>
<path d="M 1023.9 791.9 Q 1023.7 791.5 1023.3 791.3" fill="none" stroke="rgba(54,91,109,0.62)" stroke-width="2"/>
<path d="M 1023.3 791.3 Q 1023.4 791.8 1023.7 792.1" fill="none" stroke="rgba(54,91,109,0.62)" stroke-width="2"/>
<path d="M 1023.7 792.1 Q 1024.9 791.1 1025.3 789.5" fill="none" stroke="rgba(54,91,109,0.62)" stroke-width="2"/>
<path d="M 1025.3 789.5 Q 1019.4 804.2 1023.1 819.5" fill="none" stroke="rgba(54,91,109,0.62)" stroke-width="2"/>
<path d="M 1023.1 819.5 Q 1005.8 833.0 999.5 854.1" fill="none" stroke="rgba(54,91,109,0.62)" stroke-width="2"/>
<path d="M 999.5 854.1 Q 1016.8 840.6 1023.1 819.5" fill="none" stroke="rgba(54,91,109,0.62)" stroke-width="2"/>
<path d="M 1023.1 819.5 Q 1046.7 648.7 966.6 495.9" fill="none" stroke="rgba(54,91,109,0.62)" stroke-width="2"/>
<path d="M 966.6 495.9 Q 959.6 598.2 1013.4 685.6" fill="none" stroke="rgba(54,91,109,0.62)" stroke-width="2"/>
<circle cx="1028.0" cy="806.6" r="2" fill="rgba(113,131,140,0.7)"/>
<circle cx="1028.0" cy="791.0" r="2" fill="rgba(113,131,140,0.7)"/>
<circle cx="1031.3" cy="787.1" r="2" fill="rgba(113,131,140,0.7)"/>
<circle cx="970.7" cy="871.6" r="2" fill="rgba(113,131,140,0.7)"/>
<circle cx="971.9" cy="878.3" r="2" fill="rgba(113,131,140,0.7)"/>
<circle cx="990.9" cy="853.4" r="2" fill="rgba(113,131,140,0.7)"/>
<circle cx="1011.0" cy="845.7" r="2" fill="rgba(113,131,140,0.7)"/>
<circle cx="1039.9" cy="726.1" r="2" fill="rgba(113,131,140,0.7)"/>
<circle cx="1030.0" cy="797.4" r="2" fill="rgba(113,131,140,0.7)"/>
<circle cx="1032.7" cy="832.1" r="2" fill="rgba(113,131,140,0.7)"/>
<circle cx="831.7" cy="985.0" r="2" fill="rgba(113,131,140,0.7)"/>
<circle cx="1044.2" cy="591.0" r="2" fill="rgba(113,131,140,0.7)"/>
<circle cx="911.3" cy="901.2" r="2" fill="rgba(113,131,140,0.7)"/>
<circle cx="936.9" cy="472.3" r="2" fill="rgba(113,131,140,0.7)"/>
<circle cx="996.9" cy="468.9" r="2" fill="rgba(113,131,140,0.7)"/>
<circle cx="979.9" cy="587.8" r="2" fill="rgba(113,131,140,0.7)"/>
<circle cx="820.6" cy="632.4" r="2" fill="rgba(113,131,140,0.7)"/>
<circle cx="1020.6" cy="688.2" r="2" fill="rgba(113,131,140,0.7)"/>
<circle cx="1025.7" cy="682.6" r="2" fill="rgba(113,131,140,0.7)"/>
<circle cx="1080.0" cy="731.7" r="2" fill="rgba(113,131,140,0.7)"/>
<circle cx="1068.3" cy="521.0" r="2" fill="rgba(113,131,140,0.7)"/>
<circle cx="1065.6" cy="704.7" r="2" fill="rgba(113,131,140,0.7)"/>
<circle cx="1027.6" cy="606.6" r="2" fill="rgba(113,131,140,0.7)"/>
<circle cx="1005.9" cy="717.0" r="2" fill="rgba(113,131,140,0.7)"/>
<circle cx="1023.9" cy="791.9" r="10" fill="rgba(177,133,65,0.12)"/>
<circle cx="1023.9" cy="791.9" r="3" fill="rgba(177,133,65,0.9)"/>
<text x="1037.9" y="796.9" fill="rgba(177,133,65,0.78)" font-family="PingFang SC, Hiragino Sans GB, sans-serif" font-size="20">尤溪小学</text>
<circle cx="1023.3" cy="791.3" r="7" fill="rgba(17,26,33,0.12)"/>
<circle cx="1023.3" cy="791.3" r="3" fill="rgba(17,26,33,0.9)"/>
<circle cx="1023.7" cy="792.1" r="7" fill="rgba(17,26,33,0.12)"/>
<circle cx="1023.7" cy="792.1" r="3" fill="rgba(17,26,33,0.9)"/>
<circle cx="1025.3" cy="789.5" r="7" fill="rgba(17,26,33,0.12)"/>
<circle cx="1025.3" cy="789.5" r="3" fill="rgba(17,26,33,0.9)"/>
<circle cx="1023.1" cy="819.5" r="7" fill="rgba(17,26,33,0.12)"/>
<circle cx="1023.1" cy="819.5" r="3" fill="rgba(17,26,33,0.9)"/>
<text x="1037.1" y="824.5" fill="rgba(17,26,33,0.78)" font-family="PingFang SC, Hiragino Sans GB, sans-serif" font-size="20">福州</text>
<circle cx="999.5" cy="854.1" r="7" fill="rgba(17,26,33,0.12)"/>
<circle cx="999.5" cy="854.1" r="3" fill="rgba(17,26,33,0.9)"/>
<circle cx="1023.1" cy="819.5" r="7" fill="rgba(17,26,33,0.12)"/>
<circle cx="1023.1" cy="819.5" r="3" fill="rgba(17,26,33,0.9)"/>
<circle cx="966.6" cy="495.9" r="7" fill="rgba(17,26,33,0.12)"/>
<circle cx="966.6" cy="495.9" r="3" fill="rgba(17,26,33,0.9)"/>
<text x="980.6" y="500.9" fill="rgba(17,26,33,0.78)" font-family="PingFang SC, Hiragino Sans GB, sans-serif" font-size="20">北京</text>
<circle cx="1013.4" cy="685.6" r="7" fill="rgba(17,26,33,0.12)"/>
<circle cx="1013.4" cy="685.6" r="3" fill="rgba(17,26,33,0.9)"/>
<text x="1027.4" y="690.6" fill="rgba(17,26,33,0.78)" font-family="PingFang SC, Hiragino Sans GB, sans-serif" font-size="20">南京</text>
</svg>